<?xml version="1.0" standalone="no"?>
<!DOCTYPE svg PUBLIC "-//W3C//DTD SVG 20010904//EN"
 "http://www.w3.org/TR/2001/REC-SVG-20010904/DTD/svg10.dtd">
<svg version="1.0" xmlns="http://www.w3.org/2000/svg"
 width="1000.000000pt" height="461.000000pt" viewBox="0 0 1000.000000 461.000000"
 preserveAspectRatio="xMidYMid meet">

<g transform="translate(0.000000,461.000000) scale(0.100000,-0.100000)"
fill="#000000" stroke="none">
<path d="M5605 4323 c-479 -19 -960 -62 -1375 -123 -216 -31 -303 -56 -391
-109 -33 -20 -281 -210 -552 -422 l-493 -386 -229 -52 c-716 -164 -1193 -300
-1380 -394 -222 -111 -335 -283 -366 -559 l-12 -106 -56 -7 c-103 -13 -157
-52 -186 -134 -19 -55 -19 -134 1 -679 9 -238 14 -439 11 -446 -3 -6 -40 -24
-83 -39 -136 -48 -167 -67 -181 -109 -9 -27 -9 -45 -2 -68 20 -56 36 -59 391
-66 l323 -7 54 -49 c168 -153 386 -258 600 -289 288 -41 610 55 833 248 l46
41 679 6 c373 4 987 11 1366 17 l687 11 73 -69 c93 -89 182 -152 293 -208 499
-255 1015 -109 1247 350 22 44 45 96 52 115 l12 35 589 42 c696 50 684 49 684
25 0 -33 49 -163 87 -231 20 -36 64 -94 98 -128 95 -95 111 -98 473 -89 353 9
370 12 452 94 115 117 198 345 219 603 7 81 18 129 49 219 54 153 69 233 84
428 26 354 -37 761 -172 1106 -80 205 -153 261 -387 299 l-135 22 -68 90 c-38
49 -107 133 -154 186 -74 83 -86 102 -86 133 0 44 -12 41 303 57 237 12 238
12 260 -9 75 -71 179 -7 208 126 6 29 9 55 7 57 -1 2 -232 -9 -513 -24 l-510
-28 -116 77 c-205 136 -369 217 -591 290 -262 87 -532 122 -1168 150 -200 9
-787 11 -975 3z m960 -173 c368 -21 485 -33 485 -46 0 -16 -268 -996 -274
-1002 -3 -2 -170 4 -373 13 l-368 18 -175 53 c-537 163 -964 230 -1530 241
-416 8 -754 -17 -1143 -83 -82 -13 -151 -23 -153 -22 -4 5 800 627 860 666 87
56 133 65 536 106 300 31 615 54 900 66 249 10 1001 4 1235 -10z m1097 -60
c403 -85 739 -343 963 -740 74 -129 82 -181 38 -230 l-29 -33 -635 -38 c-755
-46 -739 -45 -739 -21 0 17 12 20 113 25 153 9 316 32 358 51 25 11 127 21
394 36 473 26 485 27 485 48 0 9 -22 56 -48 105 -208 386 -532 638 -921 717
-137 28 -322 38 -338 18 -10 -12 -43 -140 -43 -167 0 -4 35 -12 78 -18 157
-23 339 -96 467 -188 132 -94 279 -268 273 -322 l-3 -28 -151 -3 -151 -3 -52
36 c-147 98 -356 99 -489 1 -27 -20 -56 -36 -65 -36 -9 0 -25 29 -44 82 l-30
82 58 285 c32 158 64 297 71 310 7 13 27 33 43 43 27 18 44 19 165 14 77 -3
177 -14 232 -26z m-4822 -882 c-396 -217 -401 -329 -14 -369 150 -15 672 -7
969 16 513 39 1126 102 1765 181 l285 35 433 -18 c237 -9 429 -20 424 -25 -12
-12 -395 -113 -614 -162 -512 -114 -930 -174 -1448 -207 -185 -12 -3492 -26
-3536 -15 -13 4 -24 13 -24 20 0 24 103 109 171 142 134 65 456 157 1004 288
176 42 392 94 480 115 88 21 165 39 170 40 6 0 -24 -18 -65 -41z m6460 -198
c48 -25 76 -61 133 -176 127 -255 186 -523 187 -849 0 -184 -31 -479 -52 -501
-3 -2 -8 62 -11 143 -12 273 -57 566 -107 698 -48 124 -125 160 -194 89 -99
-102 -232 -443 -371 -954 -43 -158 -64 -217 -91 -257 -41 -64 -111 -117 -179
-138 -34 -10 -284 -31 -779 -65 -401 -28 -751 -50 -777 -50 l-46 0 10 48 c5
26 10 122 11 214 l1 167 55 5 c30 3 404 24 830 46 426 23 786 44 799 48 31 9
61 82 33 82 -9 0 -388 -18 -842 -40 -454 -22 -841 -40 -860 -40 l-35 0 -23 89
c-30 115 -73 227 -126 326 -24 44 -47 96 -50 115 -24 116 -110 309 -167 375
-71 80 -169 109 -291 85 -122 -24 -256 -118 -328 -230 l-32 -50 -73 0 c-39 0
-106 -3 -148 -6 l-76 -7 -106 213 c-58 117 -104 215 -101 218 3 3 315 60 693
128 679 122 691 124 943 139 640 39 1200 80 1675 125 380 35 443 36 495 10z
m-3936 -452 c14 -13 60 -96 102 -186 107 -227 124 -211 -254 -233 -147 -9
-206 -9 -211 -1 -11 18 -84 402 -77 409 6 6 270 29 363 32 41 1 57 -4 77 -21z
m-3840 -28 c11 -11 32 -320 23 -344 -6 -14 -37 -16 -292 -16 -356 0 -347 -5
-309 163 22 96 55 168 90 197 29 23 29 23 254 16 123 -4 229 -11 234 -16z
m3330 -187 c22 -109 41 -204 44 -210 3 -10 -124 -13 -617 -13 -608 0 -621 0
-641 20 -11 11 -20 31 -20 43 0 13 26 82 58 152 47 106 63 132 89 148 30 17
79 21 505 36 260 10 489 19 508 20 l36 1 38 -197z m-1386 155 c6 -6 12 -14 12
-18 0 -17 -264 -333 -294 -351 -17 -10 -48 -19 -68 -19 l-37 0 100 145 c54 80
99 152 99 159 0 8 -7 17 -16 20 -9 3 -297 6 -640 6 -624 0 -624 0 -624 -21 0
-26 122 -233 164 -278 l31 -33 -76 4 c-81 5 -140 30 -186 80 -34 36 -203 280
-203 293 0 6 4 15 9 21 14 13 1712 6 1729 -8z m3027 -427 c182 -90 334 -324
390 -601 14 -66 16 -116 12 -225 -6 -173 -34 -281 -112 -441 -65 -133 -159
-242 -252 -291 -52 -28 -123 -51 -123 -40 0 2 22 18 49 35 241 157 410 622
346 957 -44 234 -187 456 -351 542 -67 36 -159 63 -213 63 -41 0 -32 14 19 29
61 18 166 6 235 -28z m2794 -7 c40 -33 106 -168 131 -266 49 -198 68 -512 41
-708 -32 -234 -111 -390 -198 -390 -22 0 -83 45 -83 61 0 5 6 9 13 9 27 0 81
79 102 150 7 24 7 24 -12 8 -58 -52 -121 7 -157 149 -21 78 -20 90 3 96 35 9
54 101 49 241 -4 133 -23 196 -59 196 -15 0 -18 5 -15 23 46 222 93 296 167
257 10 -6 19 -7 19 -3 -1 21 -58 109 -82 127 -27 19 -29 19 -64 3 l-36 -17 22
30 c47 66 106 79 159 34z m-3339 -26 c0 -17 -44 -189 -81 -318 -17 -58 -47
-141 -68 -185 -55 -116 -189 -313 -247 -363 -100 -86 -260 -151 -419 -171
-191 -24 -660 -45 -1370 -62 -501 -12 -3029 -19 -3039 -8 -6 6 -25 242 -20
248 2 2 75 7 163 12 172 9 209 18 253 65 35 38 112 227 103 255 -4 11 -16 24
-28 28 -12 5 -133 12 -269 16 l-247 7 -5 42 c-14 111 -25 359 -17 374 5 10 19
26 30 36 21 19 32 19 404 7 1224 -38 2509 -56 3342 -46 543 6 641 10 1030 39
526 41 485 39 485 24z m257 -170 c1 -124 54 -237 130 -273 72 -34 188 7 240
86 14 21 28 39 30 39 2 0 17 -28 33 -62 l29 -62 -27 -16 c-33 -20 -84 -112
-107 -194 -36 -124 3 -282 89 -365 l35 -34 -29 -56 c-52 -102 -50 -101 -104
-43 -60 64 -121 91 -166 72 -62 -26 -133 -195 -129 -305 l3 -60 -53 -14 -53
-14 -61 61 -61 61 48 51 c26 28 59 75 72 105 31 67 42 180 24 245 -22 81 -108
140 -204 140 -33 0 -36 2 -36 29 0 16 3 42 6 59 5 27 12 32 48 38 89 14 169
81 182 150 14 77 -2 196 -43 317 l-40 117 72 0 72 0 0 -72z m-400 -766 c-12
-227 -15 -254 -33 -279 -12 -16 -32 -33 -45 -40 -32 -15 -708 -43 -1814 -74
-478 -13 -2873 -22 -3205 -12 l-255 8 0 25 c0 21 9 28 65 49 75 28 1 26 2325
56 2437 31 2390 30 2478 54 217 58 403 223 474 423 10 26 18 46 20 45 1 -2 -4
-116 -10 -255z"/>
<path d="M5435 4080 c-368 -12 -828 -45 -1170 -86 -192 -22 -243 -33 -298 -61
-46 -23 -632 -471 -625 -478 2 -1 49 3 105 11 l102 13 243 177 c134 97 267
188 296 201 47 22 82 27 300 43 258 20 272 18 272 -23 0 -11 -47 -95 -105
-187 -58 -91 -105 -169 -105 -172 0 -3 48 -9 108 -12 347 -23 704 -76 1006
-152 54 -14 100 -24 101 -22 2 2 -64 111 -146 243 -82 132 -149 249 -149 261
0 48 19 57 156 67 181 13 1048 12 1229 -1 82 -6 151 -10 152 -8 8 7 42 140 38
144 -9 9 -396 32 -715 42 -351 11 -429 11 -795 0z"/>
<path d="M6114 3420 c-28 -4 -74 -15 -102 -24 -50 -17 -163 -84 -176 -104 -4
-6 36 -23 96 -42 97 -31 118 -33 358 -45 140 -7 293 -15 339 -17 l84 -3 13 35
c7 19 13 45 13 58 1 21 -3 22 -64 22 -56 0 -77 6 -145 40 -136 68 -295 99
-416 80z"/>
<path d="M8345 2813 c-48 -7 -57 -20 -49 -72 10 -71 16 -74 121 -60 50 6 97
15 104 20 15 9 14 71 -2 100 -8 16 -21 19 -77 18 -37 -1 -80 -4 -97 -6z"/>
<path d="M1304 2469 c-3 -5 6 -23 20 -40 40 -47 36 -102 -10 -145 -19 -19 -46
-37 -60 -40 -51 -13 -10 -21 83 -16 134 6 137 10 128 127 -3 50 -12 95 -18
101 -15 15 -135 25 -143 13z"/>
<path d="M4456 2441 c-3 -4 4 -17 16 -27 29 -27 50 -81 43 -114 -7 -30 -54
-79 -100 -103 l-30 -16 45 0 c25 0 78 4 119 8 86 8 105 25 97 81 -3 19 -8 61
-12 93 -4 32 -13 65 -21 73 -16 16 -148 20 -157 5z"/>
<path d="M3960 2425 c0 -2 11 -21 25 -41 46 -68 23 -137 -64 -185 l-36 -20
107 4 c68 2 113 8 122 17 27 22 14 202 -15 221 -14 9 -139 13 -139 4z"/>
<path d="M4140 1540 c-140 -4 -304 -8 -363 -9 -85 -1 -109 -4 -113 -16 -4 -9
14 -40 43 -77 28 -35 77 -104 111 -155 83 -123 73 -120 417 -127 306 -5 326
-2 387 62 67 72 75 172 19 249 -59 82 -81 85 -501 73z"/>
<path d="M1515 1507 c-16 -8 -42 -26 -57 -40 -36 -34 -103 -137 -124 -192 -15
-41 -15 -47 -1 -69 l16 -24 608 -6 c334 -3 834 -8 1109 -11 453 -5 503 -4 518
10 9 9 16 20 16 25 0 15 -82 131 -132 186 -84 92 -117 106 -271 115 -73 4
-474 10 -892 13 -639 6 -765 4 -790 -7z"/>
<path d="M6275 1508 c-28 -15 -65 -50 -76 -70 -8 -15 -6 -17 21 -12 25 5 35 1
59 -25 40 -42 50 -106 26 -167 -20 -52 -45 -68 -92 -61 l-34 6 23 -40 c60
-107 170 -103 231 10 70 127 28 312 -80 357 -39 17 -52 17 -78 2z"/>
<path d="M111 1123 c-6 -10 -11 -12 -11 -5 0 6 -5 12 -11 12 -8 0 -7 -5 1 -15
16 -19 55 -16 55 4 0 22 -22 24 -34 4z m29 -3 c0 -5 -4 -10 -10 -10 -5 0 -10
5 -10 10 0 6 5 10 10 10 6 0 10 -4 10 -10z"/>
<path d="M100 1080 l-24 -6 24 -17 c19 -13 26 -14 29 -5 2 7 8 16 13 19 15 10
-14 16 -42 9z"/>
<path d="M87 1033 c-14 -13 -6 -33 13 -33 11 0 20 5 20 11 0 8 5 8 15 -1 20
-16 19 -6 -1 14 -16 17 -36 21 -47 9z m23 -13 c0 -5 -5 -10 -11 -10 -5 0 -7 5
-4 10 3 6 8 10 11 10 2 0 4 -4 4 -10z"/>
<path d="M82 943 c2 -20 9 -38 16 -39 7 -1 8 0 2 3 -19 9 -10 23 15 23 25 0
34 -14 15 -23 -6 -3 -5 -4 2 -3 24 5 13 31 -14 34 -17 2 -28 9 -28 19 0 10 5
13 18 8 38 -15 46 -16 22 -1 -40 25 -51 20 -48 -21z"/>
<path d="M87 883 c-14 -13 -6 -33 13 -33 11 0 20 5 20 11 0 8 5 8 15 -1 20
-16 19 -6 -1 14 -16 17 -36 21 -47 9z m23 -13 c0 -5 -4 -10 -10 -10 -5 0 -10
5 -10 10 0 6 5 10 10 10 6 0 10 -4 10 -10z"/>
<path d="M85 819 c-4 -6 -4 -13 -1 -16 3 -4 6 -1 6 5 0 14 42 12 52 -3 5 -6 8
-3 8 8 0 12 -8 17 -29 17 -17 0 -33 -5 -36 -11z"/>
<path d="M111 773 c-6 -10 -11 -12 -11 -5 0 6 -5 12 -11 12 -8 0 -7 -5 1 -15
16 -19 55 -16 55 4 0 22 -22 24 -34 4z m29 -3 c0 -5 -4 -10 -10 -10 -5 0 -10
5 -10 10 0 6 5 10 10 10 6 0 10 -4 10 -10z"/>
<path d="M80 718 c0 -21 20 -24 38 -6 10 10 15 10 22 -2 7 -11 10 -11 10 -2 0
19 -31 27 -41 11 -8 -12 -11 -12 -19 1 -8 13 -10 12 -10 -2z"/>
<path d="M100 667 c0 -18 2 -19 10 -7 6 10 10 11 10 3 0 -7 4 -13 10 -13 14 0
1 27 -16 34 -9 4 -14 -2 -14 -17z"/>
<path d="M88 613 c6 -2 18 -2 25 0 6 3 1 5 -13 5 -14 0 -19 -2 -12 -5z"/>
<path d="M138 613 c6 -2 18 -2 25 0 6 3 1 5 -13 5 -14 0 -19 -2 -12 -5z"/>
<path d="M131 566 c-7 -8 -25 -17 -39 -19 -17 -2 -10 -5 18 -5 29 -1 40 1 31
7 -11 7 -11 9 0 13 8 3 11 8 8 12 -3 4 -12 0 -18 -8z"/>
<path d="M100 523 c0 -6 5 -15 10 -18 8 -5 7 -11 -1 -21 -10 -12 -9 -17 0 -27
10 -9 11 -8 6 6 -5 12 -2 17 10 17 12 0 15 -5 10 -17 -5 -14 -4 -15 6 -6 9 10
10 15 0 27 -8 10 -9 16 -1 21 5 3 10 11 10 18 0 6 -6 2 -14 -8 -13 -18 -13
-18 -24 1 -6 10 -12 14 -12 7z"/>
<path d="M94 431 c-2 -2 -1 -7 1 -11 5 -9 55 -1 55 9 0 6 -49 9 -56 2z"/>
<path d="M80 388 c0 -21 36 -25 43 -5 4 9 8 8 16 -3 8 -11 11 -11 11 -2 0 19
-31 27 -41 11 -8 -12 -11 -12 -19 1 -8 13 -10 12 -10 -2z"/>
<path d="M100 322 c0 -4 4 -12 9 -17 11 -11 -6 -39 -29 -48 -8 -3 4 -6 28 -6
43 -1 54 13 31 36 -8 8 -8 13 0 17 6 4 11 13 11 19 0 7 -4 6 -10 -3 -6 -10
-10 -11 -10 -2 0 6 -7 12 -15 12 -8 0 -15 -4 -15 -8z m40 -52 c0 -5 -7 -10
-15 -10 -8 0 -15 5 -15 10 0 6 7 10 15 10 8 0 15 -4 15 -10z"/>
<path d="M104 229 c-3 -6 -1 -16 5 -22 9 -9 11 -8 6 6 -5 12 -2 17 10 17 12 0
15 -5 10 -17 -5 -14 -3 -15 6 -6 13 13 4 33 -16 33 -8 0 -17 -5 -21 -11z"/>
<path d="M80 183 c8 -3 20 -13 26 -21 7 -9 18 -13 28 -9 30 12 12 32 -30 34
-21 1 -32 -1 -24 -4z m60 -13 c0 -5 -7 -10 -15 -10 -8 0 -15 5 -15 10 0 6 7
10 15 10 8 0 15 -4 15 -10z"/>
<path d="M130 132 c-22 -10 -21 -39 2 -45 16 -4 17 -3 7 9 -9 11 -9 17 1 29
14 16 13 17 -10 7z"/>
<path d="M80 110 c0 -5 5 -10 10 -10 6 0 10 5 10 10 0 6 -4 10 -10 10 -5 0
-10 -4 -10 -10z"/>
</g>
</svg>
